<svg xmlns="http://www.w3.org/2000/svg" width="655.562" height="205.508" viewBox="0 0 655.562 205.508">
  <g id="Appearence" transform="translate(0 0.219)">
    <g id="组_15" data-name="组 15" transform="translate(0 5.162)">
      <path id="路径_44" data-name="路径 44" d="M167.412,69.88,97.532,0h-86.4A11.124,11.124,0,0,0,0,11.127v86.4l69.88,69.88Z" fill="#50e6ff"/>
      <path id="路径_45" data-name="路径 45" d="M131.662,34.074l-23.7-23.7a11.451,11.451,0,0,0-16.246,0L10.372,91.77a11.451,11.451,0,0,0,0,16.246l23.646,23.646a11.451,11.451,0,0,0,16.246,0L131.606,50.32A11.5,11.5,0,0,0,131.662,34.074Z" transform="translate(31.912 31.912)" fill="#212121"/>
      <path id="路径_46" data-name="路径 46" d="M137.552,39.919,105.783,8.15,8.14,105.738l31.769,31.769a11.451,11.451,0,0,0,16.246,0L137.5,56.165A11.5,11.5,0,0,0,137.552,39.919Z" transform="translate(37.149 37.194)" fill="#424242"/>
      <path id="路径_47" data-name="路径 47" d="M30.778,31.634l-5.341-5.341A7.868,7.868,0,0,0,14.31,37.42l5.341,5.341a7.891,7.891,0,0,0,11.127,0h0A7.891,7.891,0,0,0,30.778,31.634Z" transform="translate(54.736 109.518)" fill="#9e9e9e"/>
      <path id="路径_48" data-name="路径 48" d="M32.217,41.035,28.99,44.262a5.541,5.541,0,0,1-7.845,0L13.3,36.417,24.427,25.29l7.845,7.845A5.66,5.66,0,0,1,32.217,41.035Z" transform="translate(60.697 115.416)" fill="#757575"/>
      <path id="路径_49" data-name="路径 49" d="M21.29,38.76l64.15,64.205H92a11.16,11.16,0,0,0,11.127-11.127V85.662L38.816,21.29Z" transform="translate(97.162 97.162)" fill="#424242"/>
      <path id="路径_50" data-name="路径 50" d="M64.789,34.45S32.241,9.692,20.947,20.93s13.52,43.842,13.52,43.842a11.317,11.317,0,0,0,15.968,0L64.789,50.418A11.316,11.316,0,0,0,64.789,34.45Z" transform="translate(82.149 82.165)" fill="#757575"/>
    </g>
    <text id="界面修改" transform="translate(257.286 90.781)" fill="#707070" font-size="86" font-family="MicrosoftYaHei-Bold, Microsoft YaHei" font-weight="700"><tspan x="0" y="0">界面修改</tspan></text>
    <text id="DPI_动画速度等更改" data-name="DPI/动画速度等更改" transform="translate(257.286 169.781)" fill="#707070" font-size="43" font-family="MicrosoftYaHei, Microsoft YaHei"><tspan x="0" y="0">DPI/动画速度等更改</tspan></text>
  </g>
</svg>
