<svg id="Application" xmlns="http://www.w3.org/2000/svg" xmlns:xlink="http://www.w3.org/1999/xlink" width="651.69" height="200.127" viewBox="0 0 651.69 200.127">
  <defs>
    <linearGradient id="linear-gradient" x1="0.5" y1="1.052" x2="0.5" y2="0.054" gradientUnits="objectBoundingBox">
      <stop offset="0" stop-color="#33bef0"/>
      <stop offset="1" stop-color="#0a85d9"/>
    </linearGradient>
  </defs>
  <path id="路径_70" data-name="路径 70" d="M0,27.876V11.328A11.138,11.138,0,0,1,11.106.222L188.8,0A11.138,11.138,0,0,1,199.9,11.106v16.77a5.569,5.569,0,0,1-5.553,5.553H5.553A5.569,5.569,0,0,1,0,27.876Zm194.463,72.188H111.169a5.569,5.569,0,0,0-5.553,5.553v33.317a5.569,5.569,0,0,0,5.553,5.553h83.349a5.569,5.569,0,0,0,5.553-5.553l-.056-33.317A5.569,5.569,0,0,0,194.463,100.063Zm-88.847,61.082v33.317a5.569,5.569,0,0,0,5.553,5.553l77.8-.111A11.138,11.138,0,0,0,200.071,188.8l-.056-27.654a5.569,5.569,0,0,0-5.553-5.553H111.169A5.5,5.5,0,0,0,105.616,161.145Zm0-111.058V83.4a5.569,5.569,0,0,0,5.553,5.553h83.294a5.569,5.569,0,0,0,5.553-5.553l-.056-33.317a5.569,5.569,0,0,0-5.553-5.553H111.169A5.5,5.5,0,0,0,105.616,50.087ZM88.958,44.534H5.608A5.569,5.569,0,0,0,.056,50.087L.167,189.021a11.138,11.138,0,0,0,11.106,11.106l77.63-.056a5.569,5.569,0,0,0,5.553-5.553V50.143A5.466,5.466,0,0,0,88.958,44.534Z" fill="url(#linear-gradient)"/>
  <text id="修改软件" transform="translate(256.414 108.125)" fill="#707070" font-size="86" font-family="MicrosoftYaHei-Bold, Microsoft YaHei" font-weight="700"><tspan x="0" y="0">修改软件</tspan></text>
  <text id="软件安装_软件管理" data-name="软件安装，软件管理" transform="translate(256.414 187.125)" fill="#707070" font-size="43" font-family="MicrosoftYaHei, Microsoft YaHei"><tspan x="0" y="0">软件安装，软件管理</tspan></text>
</svg>
