<svg id="组_41" data-name="组 41" xmlns="http://www.w3.org/2000/svg" width="296.875" height="250" viewBox="0 0 296.875 250">
  <path id="路径_156" data-name="路径 156" d="M152.656.44l26.953,13.438V122H7.734L0,108.643Z" transform="translate(117.266 2.998)" fill="#0883d9"/>
  <circle id="椭圆_14" data-name="椭圆 14" cx="16.875" cy="16.875" r="16.875" transform="translate(263.125 0)" fill="#0883d9"/>
  <path id="路径_157" data-name="路径 157" d="M152.656,137.563l26.953-13.437V16H7.734L0,29.359Z" transform="translate(117.266 109)" fill="#0370c8"/>
  <circle id="椭圆_15" data-name="椭圆 15" cx="16.875" cy="16.875" r="16.875" transform="translate(263.125 216.25)" fill="#0370c8"/>
  <path id="路径_158" data-name="路径 158" d="M166.656.44l26.953,13.438V122H21.734L14,108.643Z" transform="translate(-6.109 2.998)" fill="#0883d9"/>
  <path id="路径_159" data-name="路径 159" d="M34,29.625H65.25a15.625,15.625,0,0,0-31.25,0Z" transform="translate(-34 95.375)" fill="#0883d9"/>
  <circle id="椭圆_16" data-name="椭圆 16" cx="16.875" cy="16.875" r="16.875" transform="translate(153.75 0)" fill="#0883d9"/>
  <path id="路径_160" data-name="路径 160" d="M166.656,137.563l26.953-13.437V16H21.734L14,29.359Z" transform="translate(-6.109 109)" fill="#0370c8"/>
  <path id="路径_161" data-name="路径 161" d="M34,16H65.25A15.625,15.625,0,0,1,34,16Z" transform="translate(-34 109)" fill="#0370c8"/>
  <circle id="椭圆_17" data-name="椭圆 17" cx="16.875" cy="16.875" r="16.875" transform="translate(153.75 216.25)" fill="#0370c8"/>
</svg>
