<svg id="组_22" data-name="组 22" xmlns="http://www.w3.org/2000/svg" xmlns:xlink="http://www.w3.org/1999/xlink" width="387.097" height="250" viewBox="0 0 387.097 250">
  <defs>
    <linearGradient id="linear-gradient" x1="0.297" y1="1.117" x2="0.629" y2="0.139" gradientUnits="objectBoundingBox">
      <stop offset="0" stop-color="#2aa4f4"/>
      <stop offset="1" stop-color="#007ad9"/>
    </linearGradient>
  </defs>
  <path id="路径_102" data-name="路径 102" d="M387.1,153.226A96.748,96.748,0,0,1,290.323,250H76.613A76.63,76.63,0,0,1,60.081,98.548,129.077,129.077,0,0,1,292.258,56.532,96.647,96.647,0,0,1,387.1,153.226Z" fill="url(#linear-gradient)"/>
  <path id="路径_103" data-name="路径 103" d="M172.29,13H156.161a47.786,47.786,0,0,0-38.468,19.355,8.024,8.024,0,0,0,6.371,12.9H107.532a8.162,8.162,0,0,0,7.258-4.516,8.047,8.047,0,0,0-.806-8.468A47.934,47.934,0,0,0,75.516,13H59.387a48.387,48.387,0,0,0,0,96.774H75.516a47.786,47.786,0,0,0,38.468-19.355,8.024,8.024,0,0,0-6.371-12.9h16.532a8.162,8.162,0,0,0-7.258,4.516,7.908,7.908,0,0,0,.806,8.387,47.785,47.785,0,0,0,38.468,19.355H172.29a48.387,48.387,0,0,0,0-96.774ZM59.387,77.516a16.129,16.129,0,0,1,0-32.258H83.581a16.129,16.129,0,0,0,0,32.258ZM164.226,61.387A16.176,16.176,0,0,0,148.1,45.258H172.29a16.129,16.129,0,0,1,0,32.258H148.1A16.176,16.176,0,0,0,164.226,61.387Z" transform="translate(77.71 91.839)" opacity="0.05"/>
  <path id="路径_104" data-name="路径 104" d="M55.855,78.016h56.29l-4.919,6.452A43.926,43.926,0,0,1,71.984,102.21H55.855a44.355,44.355,0,0,1,0-88.71H71.984a43.813,43.813,0,0,1,35.242,17.742l4.919,6.452H55.855a20.161,20.161,0,0,0,0,40.323ZM168.758,13.5H152.629a43.813,43.813,0,0,0-35.242,17.742l-4.919,6.452h56.29a20.161,20.161,0,0,1,0,40.323h-56.29l4.919,6.452a43.926,43.926,0,0,0,35.242,17.742h16.129a44.355,44.355,0,0,0,0-88.71ZM67.952,57.855a12.081,12.081,0,0,0,12.1,12.1h64.516a12.1,12.1,0,0,0,0-24.194H80.048A12.081,12.081,0,0,0,67.952,57.855Z" transform="translate(81.242 95.371)" opacity="0.07"/>
  <path id="路径_105" data-name="路径 105" d="M52.323,78.516a24.194,24.194,0,0,1,0-48.387h48.145A40.051,40.051,0,0,0,68.452,14H52.323a40.323,40.323,0,1,0,0,80.645H68.452a39.935,39.935,0,0,0,32.016-16.129Z" transform="translate(84.774 98.903)" fill="#fff"/>
  <path id="路径_106" data-name="路径 106" d="M73.175,14H57.046A39.935,39.935,0,0,0,25.03,30.129H73.175a24.194,24.194,0,0,1,0,48.387H25.03A40.051,40.051,0,0,0,57.046,94.645H73.175a40.323,40.323,0,0,0,0-80.645Z" transform="translate(176.825 98.903)" fill="#fff"/>
  <path id="路径_107" data-name="路径 107" d="M91.581,34.129H27.065a8.065,8.065,0,0,1,0-16.129H91.581a8.065,8.065,0,0,1,0,16.129Z" transform="translate(134.226 127.161)" fill="#fff"/>
</svg>
