<svg id="组_40" data-name="组 40" xmlns="http://www.w3.org/2000/svg" width="296.875" height="250" viewBox="0 0 296.875 250">
  <path id="路径_156" data-name="路径 156" d="M26.953.44,0,13.878V122H171.875l7.734-13.359Z" transform="translate(0 2.998)" fill="#eb8585"/>
  <path id="路径_165" data-name="路径 165" d="M16.875,0A16.875,16.875,0,1,1,0,16.875,16.875,16.875,0,0,1,16.875,0Z" transform="translate(0 0)" fill="#eb8585"/>
  <path id="路径_157" data-name="路径 157" d="M26.953,137.563,0,124.125V16H171.875l7.734,13.359-39.222,27.8Z" transform="translate(0 109)" fill="#dc415b"/>
  <path id="路径_166" data-name="路径 166" d="M16.875,0A16.875,16.875,0,1,1,0,16.875,16.875,16.875,0,0,1,16.875,0Z" transform="translate(0 216.25)" fill="#dc415b"/>
  <path id="路径_158" data-name="路径 158" d="M40.953.44,25.591,8.1,14,13.878V122H185.875l7.734-13.359Z" transform="translate(95.375 2.998)" fill="#eb8585"/>
  <path id="路径_159" data-name="路径 159" d="M65.25,29.625H34a15.625,15.625,0,0,1,31.25,0Z" transform="translate(231.625 95.375)" fill="#eb8585"/>
  <path id="路径_164" data-name="路径 164" d="M16.875,0A16.875,16.875,0,1,1,0,16.875,16.875,16.875,0,0,1,16.875,0Z" transform="translate(109.375 0)" fill="#eb8585"/>
  <path id="路径_160" data-name="路径 160" d="M40.953,137.563,14,124.125V16H185.875l7.734,13.359Z" transform="translate(95.375 109)" fill="#dc415b"/>
  <path id="路径_161" data-name="路径 161" d="M65.25,16H34a15.625,15.625,0,0,0,31.25,0Z" transform="translate(231.625 109)" fill="#dc415b"/>
  <path id="路径_167" data-name="路径 167" d="M16.875,0A16.875,16.875,0,1,1,0,16.875,16.875,16.875,0,0,1,16.875,0Z" transform="translate(109.375 216.25)" fill="#dc415b"/>
</svg>
