<svg id="组_21" data-name="组 21" xmlns="http://www.w3.org/2000/svg" xmlns:xlink="http://www.w3.org/1999/xlink" width="250" height="250" viewBox="0 0 250 250">
  <defs>
    <linearGradient id="linear-gradient" y1="0.576" x2="1" y2="0.576" gradientUnits="objectBoundingBox">
      <stop offset="0" stop-color="#4c4c4c"/>
      <stop offset="1" stop-color="#343434"/>
    </linearGradient>
  </defs>
  <path id="路径_98" data-name="路径 98" d="M125,0A125,125,0,0,0,86.375,243.875h77.25A125,125,0,0,0,125,0Z" fill="url(#linear-gradient)"/>
  <path id="路径_99" data-name="路径 99" d="M139.811,199.228l-.062-36.25a37.205,37.205,0,0,0-4-16.812C171,139.1,188.186,118.228,188.186,82.54c0-14.062-4.187-26.563-12.375-37a41.288,41.288,0,0,0,1.375-6.125A45.715,45.715,0,0,0,176,20.79l-.188-.75a72.743,72.743,0,0,0-2.625-8.687L172.5,9.6l-.687-1.75-1.875-.187-1.875-.188s-1.25-.125-3.125-.125a32.612,32.612,0,0,0-10.187,1.5l-1.25.375a67.746,67.746,0,0,0-15.125,6.688c-1.812,1.063-3.75,2.313-5.812,3.625a128.318,128.318,0,0,0-30.312-3.5A126.818,126.818,0,0,0,71.686,19.6c-2.125-1.375-4.062-2.625-5.875-3.687A70.766,70.766,0,0,0,50.686,9.227l-1.25-.437a32.612,32.612,0,0,0-10.187-1.5c-1.875,0-3.125.125-3.125.125L34.249,7.6l-1.875.188L31.686,9.6,31,11.353a77.53,77.53,0,0,0-2.625,8.688l-.125.75a45.715,45.715,0,0,0-1.187,18.625A42.085,42.085,0,0,0,28.5,45.728C20.5,56.165,16.374,68.54,16.374,82.54c0,35.563,17.188,56.438,52.5,63.563a41.331,41.331,0,0,0-2.812,7.625,22.539,22.539,0,0,1-3.375.875,28.284,28.284,0,0,1-4.625.313c-4.312,0-7.687-.812-8.937-1.625-1.937-1.187-5.437-4.562-8.812-9.5-2.875-4.187-7.375-9.75-12.437-12.062A32.215,32.215,0,0,0,15.186,128.6a13.559,13.559,0,0,0-2.375.188,10.079,10.079,0,0,0-7.375,4.875,8.416,8.416,0,0,0-.562,7.125c1.375,3.438,5.312,6.188,8.375,7.875a23.7,23.7,0,0,1,6.688,6.938,32.968,32.968,0,0,1,3,6.188c.563,1.375,1.125,2.813,1.938,4.563,2.938,6.375,12.125,12,13.125,12.625,5.063,3,13.5,4,19.75,4.25h.75a56.039,56.039,0,0,0,6.25-.437v16.438c0,3.313-3.375,4.063-7.812,4l3.438,1.125a122.57,122.57,0,0,0,83.75,0l4.375-1.625C144.061,202.6,139.874,201.852,139.811,199.228Z" transform="translate(22.751 38.272)" opacity="0.05"/>
  <path id="路径_100" data-name="路径 100" d="M142.045,201.55c-2.562.312-8-.688-8-4.938v-36.25A33.964,33.964,0,0,0,128.17,141.3c37-6,54.25-25.563,54.25-61.313,0-14-4.312-26.188-12.75-36.375a33.645,33.645,0,0,0,1.813-7.187,44.312,44.312,0,0,0-1.125-17.5l-.187-.75a63.48,63.48,0,0,0-2.5-8.25l-.687-1.75-1.875-.188s-1.125-.125-2.812-.125a29.5,29.5,0,0,0-9.187,1.375l-1.25.438a68.13,68.13,0,0,0-14.5,6.375c-2.062,1.25-4.375,2.688-6.875,4.313A116.252,116.252,0,0,0,99.67,16.487,121.7,121.7,0,0,0,68.545,20.3c-2.5-1.688-4.812-3.125-6.937-4.375a65.085,65.085,0,0,0-14.5-6.375l-1.25-.437A28.634,28.634,0,0,0,36.732,7.8c-1.687,0-2.812.125-2.812.125l-1.875.188-.688,1.75a63.479,63.479,0,0,0-2.5,8.25l-.187.688a42.172,42.172,0,0,0-1.125,17.5,34.862,34.862,0,0,0,1.875,7.313c-8.312,10.125-12.5,22.312-12.5,36.25,0,35.625,17.313,55.25,54.313,61.313a33.523,33.523,0,0,0-5.062,12.25,26.757,26.757,0,0,1-5.563,1.625,33.873,33.873,0,0,1-5.062.375c-4.312,0-8.437-.812-10.563-2.062-2.75-1.625-6.625-5.687-9.812-10.437-2.187-3.187-6.562-8.875-11.187-10.937a29.3,29.3,0,0,0-11.375-2.875,16.629,16.629,0,0,0-1.875.125,7.107,7.107,0,0,0-5.188,3.313,5.064,5.064,0,0,0-.375,4.437c1.125,2.813,5.25,5.313,7,6.25,2.125,1.125,5.75,4.625,7.813,8a38.392,38.392,0,0,1,3.25,6.687c.563,1.313,1.125,2.75,1.875,4.438,2.063,4.5,8.438,9.188,11.875,11.25,4.688,2.813,13.438,3.625,18.25,3.813h.688a82.231,82.231,0,0,0,9.375-.812V196.55c0,4.875-6.187,5.063-7.688,5.063-.187,0,3.125,1.125,3.125,1.125a124.415,124.415,0,0,0,77.875,0C138.607,202.8,142.232,201.488,142.045,201.55Z" transform="translate(25.33 40.95)" opacity="0.07"/>
  <path id="路径_101" data-name="路径 101" d="M176.688,77.28c0-14.438-4.875-26.438-13.25-35.813a28.077,28.077,0,0,0,2.313-8.187c1.063-7.813-.187-12.5-1.25-17.063a58.477,58.477,0,0,0-2.375-7.812A29.689,29.689,0,0,0,151.5,9.468a66.294,66.294,0,0,0-15.125,6.563c-2.812,1.688-5.687,3.562-7.937,5.063A117.192,117.192,0,0,0,97.063,17.03a119.55,119.55,0,0,0-31.687,4.062c-2.25-1.5-5.125-3.375-8-5.062-6.062-3.625-10.25-4.875-15.125-6.562A28.162,28.162,0,0,0,31.625,8.405a72.26,72.26,0,0,0-2.375,7.813C28.125,20.78,26.875,25.468,28,33.28a29.683,29.683,0,0,0,2.375,8.313c-8.187,9.313-13,21.25-13,35.625,0,37.375,20.188,54.438,57,59A30.873,30.873,0,0,0,66.25,153.03a31.138,31.138,0,0,1-7.875,2.437c-6.875,1.063-14.187,0-17.687-2.062S33,146.655,29.875,142.093c-2.625-3.875-6.437-8.312-9.875-9.875-4.563-2.062-9-2.875-11.438-2.5-2.5.375-3.625,2.188-3.125,3.5s3,3.25,5.625,4.688,6.625,5.313,9,9.125c2.625,4.188,3.125,6.625,5.313,11.438,1.563,3.375,6.875,7.625,10.688,9.875,3.25,1.938,9.75,3.063,16.812,3.375,2.438.125,8.188-.625,13-1.312v23.562a6.351,6.351,0,0,1-7.437,6.312,119.387,119.387,0,0,0,38.625,6.188,121.742,121.742,0,0,0,38.688-6.125,6.428,6.428,0,0,1-7.437-6.375v-36.25a31.07,31.07,0,0,0-8.563-21.375C156.25,131.905,176.688,115.28,176.688,77.28ZM17.313,136.03c-.937-.5-1.5-1.437-1.187-2.062s1.375-.75,2.313-.25,1.5,1.375,1.188,2.063S18.25,136.53,17.313,136.03Zm7.563,4.688c-.5.563-1.625.375-2.438-.375s-1.125-1.812-.625-2.375,1.625-.375,2.438.375S25.375,140.155,24.875,140.718Zm4.688,7.813c-.625.438-1.688.063-2.438-.937s-.687-2.125-.062-2.562,1.688-.062,2.438.938C30.188,146.905,30.25,148.093,29.563,148.53Zm6.812,5.875c-.437.688-1.688.75-2.75.063s-1.562-1.75-1.188-2.437c.437-.687,1.688-.75,2.75-.062S36.813,153.718,36.375,154.405Zm6.375,5.75c-1.312-.187-2.312-1-2.187-1.875s1.25-1.437,2.625-1.25c1.313.188,2.313,1,2.188,1.875S44.063,160.343,42.75,160.155Zm10.313,1.5c-1.437-.062-2.5-.875-2.5-1.813.063-.937,1.25-1.625,2.688-1.5s2.5.875,2.5,1.813C55.688,161.093,54.5,161.78,53.063,161.655Zm9.75-.938c-1.5,0-2.75-.812-2.75-1.75s1.25-1.75,2.75-1.75,2.75.813,2.75,1.75S64.313,160.718,62.813,160.718Z" transform="translate(27.937 43.532)" fill="#fff"/>
</svg>
