<svg xmlns="http://www.w3.org/2000/svg" width="250" height="250" viewBox="0 0 250 250">
  <g id="icons8_google" transform="translate(-4 -4)">
    <path id="路径_196" data-name="路径 196" d="M251.569,104.519H241.5V104H129v50h70.644a75.058,75.058,0,1,1-20.887-81.006l35.356-35.356A124.871,124.871,0,1,0,254,129,125.85,125.85,0,0,0,251.569,104.519Z" fill="#ffc107"/>
    <path id="路径_197" data-name="路径 197" d="M6.306,70.819l41.069,30.119A74.849,74.849,0,0,1,166.65,72.994l35.356-35.356A124.755,124.755,0,0,0,6.306,70.819Z" transform="translate(12.107)" fill="#ff3d00"/>
    <path id="路径_198" data-name="路径 198" d="M117.476,127.716a124.415,124.415,0,0,0,83.806-32.45L162.6,62.529a74.437,74.437,0,0,1-45.119,15.188A74.965,74.965,0,0,1,46.957,28.054L6.195,59.46A124.9,124.9,0,0,0,117.476,127.716Z" transform="translate(11.524 126.284)" fill="#4caf50"/>
    <path id="路径_199" data-name="路径 199" d="M146.569,20.519H136.5V20H24V70H94.644A75.251,75.251,0,0,1,69.1,104.819c.006-.006.013-.006.019-.012l38.687,32.738C105.069,140.031,149,107.5,149,45A125.85,125.85,0,0,0,146.569,20.519Z" transform="translate(105 84)" fill="#1976d2"/>
  </g>
</svg>
