<svg xmlns="http://www.w3.org/2000/svg" xmlns:xlink="http://www.w3.org/1999/xlink" width="254.03" height="250" viewBox="0 0 254.03 250">
  <defs>
    <linearGradient id="linear-gradient" x1="0.5" y1="2.205" x2="0.5" y2="1.157" gradientUnits="objectBoundingBox">
      <stop offset="0" stop-color="#d43a02"/>
      <stop offset="1" stop-color="#b9360c"/>
    </linearGradient>
  </defs>
  <g id="组_26" data-name="组 26" transform="translate(0.005)">
    <path id="路径_124" data-name="路径 124" d="M67.415,65.976,30.83,41.585V5H67.415Z" transform="translate(157.182 25.488)" fill="#ccc"/>
    <path id="路径_125" data-name="路径 125" d="M222.342,37H2.83V49.2a12.192,12.192,0,0,0,12.2,12.2H210.147a12.231,12.231,0,0,0,12.2-12.2Z" transform="translate(14.45 188.61)" fill="#999"/>
    <path id="路径_126" data-name="路径 126" d="M222.342,220.512H2.83V104.659L112.586,1,222.342,104.659Z" transform="translate(14.45 5.098)" fill="#ccc"/>
    <path id="路径_127" data-name="路径 127" d="M20.928,23H81.9A6.116,6.116,0,0,1,88,29.1V132.756H14.83V29.1A6.115,6.115,0,0,1,20.928,23Z" transform="translate(75.621 117.244)" fill="#de490d"/>
    <path id="路径_128" data-name="路径 128" d="M67.415,15.2H30.83V9.1a6.115,6.115,0,0,1,6.1-6.1h24.39a6.115,6.115,0,0,1,6.1,6.1Z" transform="translate(157.182 15.293)" fill="#999"/>
    <path id="路径_129" data-name="路径 129" d="M112.586,2a12.435,12.435,0,0,0-8.11,3.049L71.793,34.378,2.83,99.561v32.866L112.586,35.11l109.756,97.317V99.561L153.318,34.378,120.7,5.049A12.435,12.435,0,0,0,112.586,2Z" transform="translate(14.45 10.195)" opacity="0.05"/>
    <path id="路径_130" data-name="路径 130" d="M112.586,1a12.435,12.435,0,0,0-8.11,3.049L71.793,33.2,2.83,98.012V130.7L112.586,33.927,222.342,130.7V98.012L153.318,33.2,120.7,4.049A12.435,12.435,0,0,0,112.586,1Z" transform="translate(14.45 5.098)" opacity="0.07"/>
    <path id="路径_131" data-name="路径 131" d="M251.975,106.768,135.085,3.11A11.925,11.925,0,0,0,127.036,0a12.435,12.435,0,0,0-8.11,3.049L2.036,106.707a6.061,6.061,0,0,0-.366,8.72l10,10.671a6.16,6.16,0,0,0,8.476.427L127.036,33.11l106.89,93.415a6.046,6.046,0,0,0,8.476-.427l10-10.671A6.047,6.047,0,0,0,251.975,106.768Z" transform="translate(0)" fill="url(#linear-gradient)"/>
  </g>
</svg>
