<svg id="HuaweiToolbox" xmlns="http://www.w3.org/2000/svg" width="1154" height="232" viewBox="0 0 1154 232">
  <path id="icons8_huawei_logo" d="M100.214,4c-18.125,0-32.1,15.784-32.1,44.73,0,18.9,28.606,67.39,53.972,109.846C122.082,48.647,119.375,36.741,100.214,4Zm53.571,0c-19.536,32.179-21.868,44.638-21.868,154.576C157.284,116.121,185.89,67.632,185.89,48.73,185.881,19.775,171.911,4,153.786,4ZM37.714,39.714c-26.6,18.563-17.849,62.5-4.429,76.852,8.866,9.286,43.269,26.005,75.858,48.148Zm178.571,0-71.429,125c32.589-22.143,66.992-38.863,75.858-48.148C234.135,102.218,242.884,58.277,216.286,39.714ZM2,111.143c.429,49.482,30.632,62.5,51.043,62.5h51.025Zm250,0-102.068,62.5h51.025C221.368,173.643,251.571,160.625,252,111.143ZM29.832,182.571c2.848,14.768,9.287,26.786,27.849,26.786s36.511-10.714,46.386-26.786Zm120.1,0c9.875,16.071,27.824,26.786,46.387,26.786s25-12.018,27.849-26.786Z" transform="translate(-2 -4)" fill="#702525"/>
  <text id="Huawei_Toolbox" data-name="Huawei Toolbox" transform="translate(286 129)" fill="#707070" font-size="135" font-family="Calibri"><tspan x="0" y="0">Huawei Toolbox</tspan></text>
  <text id="Beta" transform="translate(964 215)" fill="#707070" font-size="75" font-family="CenturyGothic, Century Gothic"><tspan x="0" y="0">Beta</tspan></text>
</svg>
