<svg id="icons8_unpin_2" xmlns="http://www.w3.org/2000/svg" width="239.069" height="239.069" viewBox="0 0 239.069 239.069">
  <path id="路径_211" data-name="路径 211" d="M123.535,4A119.535,119.535,0,1,0,243.069,123.535,119.535,119.535,0,0,0,123.535,4Z" transform="translate(-4 -4)" fill="#eee"/>
  <path id="路径_212" data-name="路径 212" d="M59.148,104.4,20.407,65.658l70.717-53.5,21.522,21.522Z" transform="translate(77.653 36.61)" fill="#d84315"/>
  <path id="路径_213" data-name="路径 213" d="M69.749,23.2,61.328,31.62C47.522,45.426,19.5,74.24,19.5,74.24L13,93.73l19.49-6.5S61.3,59.209,75.11,45.4l8.421-8.421Z" transform="translate(40.791 91.548)" fill="#90a4ae"/>
  <path id="路径_214" data-name="路径 214" d="M16,76.408l6.084-6.084a21.517,21.517,0,0,1,30.44,0L87.834,104.97a21.521,21.521,0,0,1,0,30.434l-6.09,6.084ZM100.529,10l-7.824,7.824a11.071,11.071,0,0,0,0,15.653l31.3,31.3a11.071,11.071,0,0,0,15.653,0l7.83-7.824Z" transform="translate(55.721 25.86)" fill="#ff5722"/>
</svg>
