<svg xmlns="http://www.w3.org/2000/svg" xmlns:xlink="http://www.w3.org/1999/xlink" width="250" height="190.476" viewBox="0 0 250 190.476">
  <defs>
    <linearGradient id="linear-gradient" x1="0.402" y1="-0.042" x2="0.601" y2="0.994" gradientUnits="objectBoundingBox">
      <stop offset="0" stop-color="#6e6e6e"/>
      <stop offset="0.999" stop-color="#4d4d4d"/>
    </linearGradient>
  </defs>
  <g id="icons8_code" transform="translate(-3 -8)">
    <path id="路径_200" data-name="路径 200" d="M241.1,8A11.9,11.9,0,0,1,253,19.9V49.667H3V19.9A11.9,11.9,0,0,1,14.9,8Z" transform="translate(0)" fill="#ccc"/>
    <path id="路径_201" data-name="路径 201" d="M253,13H3V161.81a11.9,11.9,0,0,0,11.9,11.9H241.1a11.9,11.9,0,0,0,11.9-11.9Z" transform="translate(0 24.762)" fill="url(#linear-gradient)"/>
    <circle id="椭圆_22" data-name="椭圆 22" cx="5.952" cy="5.952" r="5.952" transform="translate(229.19 19.905)" fill="#999"/>
    <circle id="椭圆_23" data-name="椭圆 23" cx="5.952" cy="5.952" r="5.952" transform="translate(211.333 19.905)" fill="#999"/>
    <path id="路径_202" data-name="路径 202" d="M68.412,51.012,54.59,25.667A8.944,8.944,0,0,0,46.733,21H38.34a7.959,7.959,0,0,0-6.988,11.774l13.054,23.94L31.346,80.649a7.962,7.962,0,0,0,6.988,11.774h8.393a8.944,8.944,0,0,0,7.857-4.667L68.412,62.411A11.824,11.824,0,0,0,68.412,51.012Z" transform="translate(135.511 64.381)" opacity="0.05"/>
    <path id="路径_203" data-name="路径 203" d="M63.321,49.964,49.493,24.613A5.969,5.969,0,0,0,44.249,21.5H35.856a4.986,4.986,0,0,0-4.375,7.375L45.315,54.238,31.481,79.6a4.986,4.986,0,0,0,4.375,7.375h8.393a5.969,5.969,0,0,0,5.244-3.113L63.321,58.512A8.9,8.9,0,0,0,63.321,49.964Z" transform="translate(137.995 66.857)" opacity="0.07"/>
    <path id="路径_204" data-name="路径 204" d="M12.464,51.012,26.285,25.667A8.944,8.944,0,0,1,34.142,21h8.393a7.959,7.959,0,0,1,6.988,11.774L36.47,56.714l13.06,23.935a7.968,7.968,0,0,1-6.994,11.78H34.142a8.944,8.944,0,0,1-7.857-4.667L12.458,62.417A11.851,11.851,0,0,1,12.464,51.012Z" transform="translate(39.613 64.381)" opacity="0.05"/>
    <path id="路径_205" data-name="路径 205" d="M12.593,49.964,26.42,24.613A5.969,5.969,0,0,1,31.664,21.5h8.393a4.986,4.986,0,0,1,4.375,7.375L30.6,54.238,44.432,79.6a4.986,4.986,0,0,1-4.375,7.375H31.664a5.969,5.969,0,0,1-5.244-3.113L12.593,58.512A8.9,8.9,0,0,1,12.593,49.964Z" transform="translate(42.092 66.857)" opacity="0.07"/>
    <path id="路径_206" data-name="路径 206" d="M46.226,51.762,31.613,78.548a2.012,2.012,0,0,0,1.768,2.976h8.393a3,3,0,0,0,2.631-1.56L58.232,54.613a5.95,5.95,0,0,0,0-5.7L44.4,23.56A3,3,0,0,0,41.774,22H33.381a2.015,2.015,0,0,0-1.768,2.976Z" transform="translate(140.47 69.333)" fill="#fff"/>
    <path id="路径_207" data-name="路径 207" d="M24.733,51.762,39.346,78.548a2.012,2.012,0,0,1-1.768,2.976H29.186a3,3,0,0,1-2.631-1.56L12.727,54.613a5.95,5.95,0,0,1,0-5.7L26.555,23.56A3,3,0,0,1,29.186,22h8.393a2.015,2.015,0,0,1,1.768,2.976Z" transform="translate(44.57 69.333)" fill="#fff"/>
    <path id="路径_208" data-name="路径 208" d="M76.994,20.512h0A8.324,8.324,0,0,0,70.208,17H63.8a8.8,8.8,0,0,0-8.292,5.863L19.47,124.982A8.306,8.306,0,0,0,27.3,136.048h6.411a8.788,8.788,0,0,0,8.292-5.869L78.047,28.071A8.361,8.361,0,0,0,76.994,20.512Z" transform="translate(79.244 44.571)" opacity="0.05"/>
    <path id="路径_209" data-name="路径 209" d="M72.087,19.75a5.346,5.346,0,0,0-4.351-2.25H61.325a5.818,5.818,0,0,0-5.482,3.875L19.8,123.488a5.332,5.332,0,0,0,5.03,7.1h6.411a5.812,5.812,0,0,0,5.482-3.881L72.766,24.6A5.358,5.358,0,0,0,72.087,19.75Z" transform="translate(81.716 47.048)" opacity="0.07"/>
    <path id="路径_210" data-name="路径 210" d="M65.262,18H58.851a2.829,2.829,0,0,0-2.673,1.893L20.137,122.006a2.354,2.354,0,0,0,2.22,3.137h6.411a2.829,2.829,0,0,0,2.673-1.893L67.482,21.137A2.354,2.354,0,0,0,65.262,18Z" transform="translate(84.191 49.524)" fill="#fff"/>
  </g>
</svg>
