<svg xmlns="http://www.w3.org/2000/svg" width="142.867" height="250" viewBox="0 0 142.867 250">
  <path id="路径_14" data-name="路径 14" d="M77.922.287A71.533,71.533,0,0,0,0,70.29c-.119,6.667,4.762,12.739,11.429,13.036A11.912,11.912,0,0,0,23.813,71.541c.119-17.977,8.989-35,25.358-42.621,35.24-16.429,69.885,9.048,69.885,42.5v5.953a29.774,29.774,0,0,1-29.763,29.763H11.907A11.94,11.94,0,0,0,0,119.043V238.1A11.94,11.94,0,0,0,11.907,250H130.961A11.94,11.94,0,0,0,142.866,238.1V73.386C142.866,36.063,115.067,3.561,77.922.287Z" transform="translate(0 -0.002)" fill="#37c6d0"/>
</svg>
