<svg xmlns="http://www.w3.org/2000/svg" width="250" height="159.091" viewBox="0 0 250 159.091">
  <g id="icons8_memory_slot" transform="translate(-2 -11)">
    <path id="路径_232" data-name="路径 232" d="M229.273,11H24.727A22.794,22.794,0,0,0,2,33.727v90.909H252V33.727A22.794,22.794,0,0,0,229.273,11Z" fill="#4caf50"/>
    <path id="路径_233" data-name="路径 233" d="M2,31V53.727A22.794,22.794,0,0,0,24.727,76.455h96.591V48.045a5.682,5.682,0,0,1,11.364,0V76.455h96.591A22.794,22.794,0,0,0,252,53.727V31Z" transform="translate(0 93.636)" fill="#37474f"/>
    <path id="路径_234" data-name="路径 234" d="M7,33H18.364V67.091H7Zm22.727,0H41.091V67.091H29.727Zm22.727,0H63.818V67.091H52.455Zm22.727,0H86.545V67.091H75.182Zm45.455,0H132V67.091H120.636Zm22.727,0h11.364V67.091H143.364Zm22.727,0h11.364V67.091H166.091Zm22.727,0h11.364V67.091H188.818Z" transform="translate(23.409 103)" fill="#ff9800"/>
    <path id="路径_235" data-name="路径 235" d="M76.182,17h45.455V73.818H76.182Zm68.182,0h45.455V73.818H144.364ZM8,17H53.455V73.818H8Z" transform="translate(28.091 28.091)" fill="#37474f"/>
  </g>
</svg>
