<svg id="MTK" xmlns="http://www.w3.org/2000/svg" width="708.238" height="169.812" viewBox="0 0 708.238 169.812">
  <g id="product-overview_smartphone_1_" transform="translate(-132.762 -92.188)">
    <g id="nav_1_" transform="translate(-1 10)">
      <path id="Fill-22_1_" d="M117.02,93.739h22.71V12.95H117.02Z" transform="translate(627.429 69.429)" fill="#ecd43d" fill-rule="evenodd"/>
      <path id="Fill-23_1_" d="M144.87,53.408h-.064l.064-.191L168.152,12.95h-22.71L122.16,53.217l.127.191h-.127l23.282,40.331h22.71L144.87,53.408" transform="translate(654.986 69.429)" fill="#ecd43d" fill-rule="evenodd"/>
      <path id="Fill-24_1_" d="M141.016,12.95H122.822L76.13,93.739H99.158l33.206-57.57v57.57h22.964V12.95H141.016" transform="translate(408.204 69.429)" fill="#ecd43d" fill-rule="evenodd"/>
      <path id="Fill-25_1_" d="M47.22,31.5H82.971L90.731,18.27H54.408L47.22,31.5" transform="translate(253.209 97.951)" fill="#ecd43d" fill-rule="evenodd"/>
      <path id="Fill-26_1_" d="M65,43.709h0C65,33.531,68.049,29.65,77.973,29.65h32.316l9.669-16.73H74.6c-19.338,0-32.061,6.807-32.061,31.234V93.963h69.847l9.669-16.73h-57V43.709" transform="translate(228.118 69.268)" fill="#ecd43d" fill-rule="evenodd"/>
      <path id="Fill-27_1_" d="M107.77,31.5h35.751l7.7-13.232h-36.26L107.77,31.5" transform="translate(577.837 97.951)" fill="#ecd43d" fill-rule="evenodd"/>
      <path id="Fill-28_1_" d="M125.612,43.709h0c0-10.178,3.053-14.059,13.041-14.059h32.315l9.669-16.73H135.281c-19.338,0-32.061,6.807-32.061,31.234V93.963h69.847l9.669-16.73h-57V43.709" transform="translate(553.443 69.268)" fill="#ecd43d" fill-rule="evenodd"/>
      <path id="Fill-29_1_" d="M90.15,29.744h28.308V93.739h22.2V29.744h20.929l9.669-16.794H99.883L90.15,29.744" transform="translate(483.37 69.429)" fill="#ecd43d" fill-rule="evenodd"/>
      <path id="Fill-30_1_" d="M91.127,77.3H78.786V29.65H91.127c17.939,0,23.6,3.181,23.6,23.219S109.066,77.3,91.127,77.3ZM95.961,12.92H57.03V94.027H97.043c28.117,0,40.712-10.814,40.712-41.158-.064-28.69-12.532-39.949-41.794-39.949Z" transform="translate(305.803 69.268)" fill="#ecd43d" fill-rule="evenodd"/>
      <path id="Fill-31_1_" d="M71.71,93.739H94.42V12.95H71.71Z" transform="translate(384.507 69.429)" fill="#ecd43d" fill-rule="evenodd"/>
      <path id="Fill-32_1_" d="M94.621,53.981V12.95l-26.972.064L21.02,93.612H43.285L71.911,44.12V93.294l-.191.318h.191v.127h22.71L122.61,44.12V93.739h22.71V12.95l-27.036.064L94.621,53.981" transform="translate(112.742 69.429)" fill="#ecd43d" fill-rule="evenodd"/>
    </g>
  </g>
  <text id="Toolbox" transform="translate(463.238 150.812)" fill="#a7b2be" font-size="65" font-family="GoogleSans-Bold, Google Sans" font-weight="700"><tspan x="0" y="0">Toolbox</tspan></text>
</svg>
