<svg id="Qualcomm" xmlns="http://www.w3.org/2000/svg" width="1035" height="395.4" viewBox="0 0 1035 395.4">
  <g id="组_46" data-name="组 46">
    <path id="路径_177" data-name="路径 177" d="M0,0H1035V395.4H0Z" fill="none"/>
    <path id="路径_178" data-name="路径 178" d="M337.2,167a3.9,3.9,0,0,1,3.9,3.9v74.5a3.952,3.952,0,0,1-3.9,3.8H327.1a3.757,3.757,0,0,1-3.8-3.6v-6.9c-5.1,7.5-13.9,12.7-26.7,12.7-21.4,0-34.6-14.2-34.6-35.3V170.7a3.952,3.952,0,0,1,3.9-3.8H276a3.8,3.8,0,0,1,3.8,3.8v42.5c0,13.7,7.2,22.8,21.4,22.8,13.9,0,22.1-9.4,22.1-22.6V170.7a3.933,3.933,0,0,1,3.8-3.8h10.1m-149-41.2c-34.6,0-62.5,26.9-62.5,62.8,0,36,27.9,62.8,62.5,62.8a63.427,63.427,0,0,0,17-2.3l6.8,17.5a4.447,4.447,0,0,0,4.6,3.1h10.8c2.6,0,4.5-1.7,3.3-5l-8.8-22.9c17.3-10.9,28.8-30.2,28.8-53.3,0-35.8-27.9-62.7-62.5-62.7M215.4,225l-7.9-20.5a5.04,5.04,0,0,0-5.1-3.3H192.1c-2.6,0-4.6,1.7-3.4,5l10.4,26.9a42.843,42.843,0,0,1-10.9,1.3c-25.3,0-43.3-19.9-43.3-45.9s18-45.9,43.3-45.9,43.3,19.9,43.3,45.9c0,15.2-6.1,28.2-16.1,36.5M909,245a2.76,2.76,0,0,1-2.7,4.1H895a4.417,4.417,0,0,1-4.5-3.1l-20.9-56.2L848.4,246a4.457,4.457,0,0,1-4.5,3.1H833.8a4.457,4.457,0,0,1-4.5-3.1l-21.4-56.5L786.8,246a4.579,4.579,0,0,1-4.5,3.1H771.7a4.579,4.579,0,0,1-4.5-3.1l-20.9-56.5L724.7,246a4.457,4.457,0,0,1-4.5,3.1H710.1a4.457,4.457,0,0,1-4.5-3.1l-21.1-56.5L663.4,246a4.417,4.417,0,0,1-4.5,3.1h-11a2.75,2.75,0,0,1-2.7-4.1l28.6-74.8q1.35-3.3,4.5-3.3h12.3c2.1,0,3.6,1,4.5,3.3l20.6,54.6,20.4-54.6q1.35-3.3,4.5-3.3h12.1c2.1,0,3.6,1,4.5,3.3l20.2,54.6,20.2-54.6q1.35-3.3,4.5-3.3h12.2c2.1,0,3.6,1,4.5,3.3l20.5,54.6,20-54.6q1.35-3.3,4.5-3.3h12.3c2.1,0,3.6,1,4.5,3.3L909,245M435.1,167H425a3.9,3.9,0,0,0-3.9,3.9v6.8c-5.1-7.7-15.1-13.2-26.9-13.2-22.3,0-41.4,17.6-41.4,43.3,0,26,19.2,43.5,41.3,43.5,12,0,21.7-5.5,27.1-13.2v7.2a3.952,3.952,0,0,0,3.9,3.8h10.1a3.8,3.8,0,0,0,3.8-3.8V170.9a3.97,3.97,0,0,0-3.9-3.9m-39,67.9c-14.7,0-25.2-12-25.2-26.9,0-15.1,10.4-26.7,25.2-26.7,14.6,0,25.2,11.6,25.2,26.7-.1,15-10.7,26.9-25.2,26.9m159.5,2.6c2.2,2.7.3,4.8-.9,5.7-7,5.3-16.3,8.2-26.4,8.2-25.5,0-42.5-18.7-42.5-43.3s17-43.5,42.5-43.5c10.1,0,19.3,2.9,26.4,8.2,1.2.9,2.9,2.7.9,5.7l-4.8,6.7c-1.9,2.6-4.1,1.9-6,.7-4.5-2.7-9.8-5-15.9-5-14.9,0-24.8,12-24.8,27.2s9.9,27.1,24.8,27.1c6.2,0,11.1-2.4,15.6-5,1.9-1,3.9-1.9,6,.9l5.1,6.4Zm47.6-72.8c-24,0-43.1,18.8-43.1,43.3,0,24.7,19.2,43.3,43.1,43.3,24,0,43.1-18.7,43.1-43.3a42.709,42.709,0,0,0-43.1-43.3m0,70.1c-14.7,0-25.2-11.8-25.2-26.7,0-15.1,10.4-26.7,25.2-26.7,14.7,0,25.2,11.6,25.2,26.7,0,14.9-10.4,26.7-25.2,26.7M470.5,127.9a3.883,3.883,0,0,1,3.8,3.9V245.2a3.758,3.758,0,0,1-3.8,3.9H460.4a4.041,4.041,0,0,1-3.9-3.9V131.9a4.041,4.041,0,0,1,3.9-3.9h10.1" fill="#d52e2e"/>
  </g>
  <text id="Toolbox" transform="translate(658 329)" fill="#3d5d7f" font-size="65" font-family="GoogleSans-Bold, Google Sans" font-weight="700"><tspan x="0" y="0">Toolbox</tspan></text>
</svg>
