<svg id="RebootREC" xmlns="http://www.w3.org/2000/svg" xmlns:xlink="http://www.w3.org/1999/xlink" width="250" height="250" viewBox="0 0 250 250">
  <defs>
    <linearGradient id="linear-gradient" x1="0.146" y1="0.904" x2="0.854" y2="0.196" gradientUnits="objectBoundingBox">
      <stop offset="0" stop-color="#05acb3"/>
      <stop offset="1" stop-color="#038387"/>
    </linearGradient>
  </defs>
  <g id="组_36" data-name="组 36">
    <path id="路径_119" data-name="路径 119" d="M250,125A125,125,0,1,1,125,0,125.046,125.046,0,0,1,250,125Z" fill="url(#linear-gradient)"/>
    <path id="路径_120" data-name="路径 120" d="M144.577,27.25a4.755,4.755,0,0,0-6.75-.125l-17.5,17.5a4.536,4.536,0,0,0-.125,6.188c20.375,24.125,9.813,59.625-12.25,72.063-8.063,4.562-31.625,5.375-44.563-3.562-14.062-9.75-31.75-40.375-13.5-62.125L63.327,70.625A7.292,7.292,0,0,0,75.764,65.5V14.25A6.268,6.268,0,0,0,69.514,8H16.577a6.558,6.558,0,0,0-4.625,11.188L26.014,33.25C-.111,62.625.7,108.75,28.327,137.875c28.437,29.938,81.063,35.25,110.313,9C169.639,119,185.827,68.938,144.577,27.25Z" transform="translate(36.736 42)" opacity="0.05"/>
    <path id="路径_121" data-name="路径 121" d="M141.926,27.75a4.7,4.7,0,0,0-6.75-.125L120.864,41.938a4.63,4.63,0,0,0-.125,6.313c19.437,23.125,12.25,57.938-11.563,72.938-12.312,7.75-35.125,8.187-49.812-1.75-19.875-13.5-30.5-46.062-12.125-68l12.75,12.75a5.817,5.817,0,0,0,9.937-4.125V14.75a6.268,6.268,0,0,0-6.25-6.25H17.614a5.468,5.468,0,0,0-3.875,9.375l12.75,12.75c-26.5,29.75-25.25,76.188,3.688,104.688,28.375,28.063,77.25,30.75,106.062,4.5C166.8,112,175.739,63.75,141.926,27.75Z" transform="translate(39.386 44.625)" opacity="0.07"/>
    <path id="路径_122" data-name="路径 122" d="M110.566,106.322A50.028,50.028,0,0,1,47.629,29.2L29.941,11.51a75.076,75.076,0,0,0,2.125,108.125c28.313,26.188,73.437,26.25,101.813,0A75.071,75.071,0,0,0,139.316,15.01a4.646,4.646,0,0,0-6.75-.125L121.441,26.01a4.724,4.724,0,0,0-.125,6.438A50.09,50.09,0,0,1,110.566,106.322Z" transform="translate(41.996 60.428)" fill="#fff"/>
    <path id="路径_123" data-name="路径 123" d="M52.782,9H13.407a4.4,4.4,0,0,0-3.125,7.5l41.25,41.25a4.4,4.4,0,0,0,7.5-3.125V15.25A6.268,6.268,0,0,0,52.782,9Z" transform="translate(47.218 47.25)" fill="#fff"/>
  </g>
  <text id="REC" transform="translate(142 56)" fill="#d1c8c8" font-size="25" font-family="GoogleSans-Bold, Google Sans" font-weight="700"><tspan x="0" y="0">REC</tspan></text>
</svg>
