<svg xmlns="http://www.w3.org/2000/svg" width="250" height="250" viewBox="0 0 250 250">
  <g id="icons8_resize" transform="translate(-6 -6)">
    <path id="路径_216" data-name="路径 216" d="M256,47.667H235.167V26.833H214.333V6H256Zm-229.167,0H6V6H47.667V26.833H26.833ZM256,214.333H235.167v20.833H214.333V256H256Zm-229.167,0H6V256H47.667V235.167H26.833ZM6,75.444H26.833v41.667H6Zm0,69.444H26.833v41.667H6ZM235.167,75.444H256v41.667H235.167Zm0,69.444H256v41.667H235.167ZM144.889,6h41.667V26.833H144.889ZM75.444,6h41.667V26.833H75.444Zm69.444,229.167h41.667V256H144.889Zm-69.444,0h41.667V256H75.444Z" fill="#b0bec5"/>
    <g id="组_47" data-name="组 47" transform="translate(131 54.611)">
      <path id="路径_217" data-name="路径 217" d="M100.389,13H24l76.389,76.389Z" transform="translate(-24 -13)" fill="#2196f3"/>
      <path id="路径_218" data-name="路径 218" d="M76.408,13.6A13.818,13.818,0,0,0,66.6,17.664L25.172,58.074,44.811,77.713,86.228,37.3A13.889,13.889,0,0,0,76.408,13.6Z" transform="translate(-17.033 -9.463)" fill="#2196f3"/>
    </g>
    <path id="路径_219" data-name="路径 219" d="M6,24H131V149H6Z" transform="translate(0 107)" fill="#1565c0"/>
  </g>
</svg>
