<svg id="Root" xmlns="http://www.w3.org/2000/svg" xmlns:xlink="http://www.w3.org/1999/xlink" width="250" height="250.007" viewBox="0 0 250 250.007">
  <defs>
    <linearGradient id="linear-gradient" x1="0.228" y1="-0.029" x2="0.79" y2="1.065" gradientUnits="objectBoundingBox">
      <stop offset="0" stop-color="#0d61a9"/>
      <stop offset="1" stop-color="#16528c"/>
    </linearGradient>
    <linearGradient id="linear-gradient-2" x1="-0.044" y1="-0.008" x2="1.005" y2="0.984" gradientUnits="objectBoundingBox">
      <stop offset="0" stop-color="#32bdef"/>
      <stop offset="1" stop-color="#1ea2e4"/>
    </linearGradient>
    <linearGradient id="linear-gradient-3" x1="-9.119" y1="218.767" x2="-8.12" y2="218.767" gradientUnits="objectBoundingBox">
      <stop offset="0.266" stop-color="#199ae0"/>
      <stop offset="0.582" stop-color="#1898de"/>
      <stop offset="0.745" stop-color="#1590d6"/>
      <stop offset="0.873" stop-color="#1083c9"/>
      <stop offset="0.982" stop-color="#0870b7"/>
      <stop offset="1" stop-color="#076cb3"/>
    </linearGradient>
    <linearGradient id="linear-gradient-4" x1="81.838" y1="94.639" x2="82.887" y2="95.631" xlink:href="#linear-gradient-2"/>
    <linearGradient id="linear-gradient-5" x1="75.729" y1="-0.011" x2="76.777" y2="0.982" xlink:href="#linear-gradient-2"/>
    <linearGradient id="linear-gradient-6" x1="-45.6" y1="218.826" x2="-44.601" y2="218.826" xlink:href="#linear-gradient-3"/>
    <linearGradient id="linear-gradient-7" x1="5.946" y1="94.681" x2="6.994" y2="95.673" xlink:href="#linear-gradient-2"/>
    <radialGradient id="radial-gradient" cx="0.5" cy="0.5" r="0.5" gradientUnits="objectBoundingBox">
      <stop offset="0"/>
      <stop offset="1" stop-opacity="0"/>
    </radialGradient>
    <linearGradient id="linear-gradient-8" x1="0.161" y1="0.161" x2="0.858" y2="0.858" gradientUnits="objectBoundingBox">
      <stop offset="0" stop-color="#75daff"/>
      <stop offset="1" stop-color="#1ea2e4"/>
    </linearGradient>
    <linearGradient id="linear-gradient-9" x1="0.5" y1="-0.021" x2="0.5" y2="1.008" xlink:href="#linear-gradient-8"/>
    <linearGradient id="linear-gradient-10" x1="0.5" y1="-0.491" x2="0.5" y2="0.123" gradientUnits="objectBoundingBox">
      <stop offset="0" stop-color="#98c5de"/>
      <stop offset="0.365" stop-color="#88caef"/>
      <stop offset="0.699" stop-color="#82c8ef"/>
      <stop offset="0.819" stop-color="#1691d8"/>
      <stop offset="0.905" stop-color="#8bc2e4"/>
      <stop offset="0.974" stop-color="#8fc4e7"/>
      <stop offset="1" stop-color="#78b0d8"/>
    </linearGradient>
    <linearGradient id="linear-gradient-11" x1="0.263" y1="0.334" x2="0.819" y2="1.421" xlink:href="#linear-gradient-2"/>
  </defs>
  <path id="路径_220" data-name="路径 220" d="M207.433,255.646l-152.672.146A48.577,48.577,0,0,1,6.136,207.262L5.99,54.591A48.567,48.567,0,0,1,54.519,5.972l152.672-.146a48.577,48.577,0,0,1,48.626,48.529l.146,152.672A48.567,48.567,0,0,1,207.433,255.646Z" transform="translate(-5.976 -5.805)" fill="url(#linear-gradient)"/>
  <path id="路径_222" data-name="路径 222" d="M38.007,36.786l.076,76.336L61.754,89.41a13.845,13.845,0,0,0,4.053-9.82l-.049-49.771L44.94,29.84A6.938,6.938,0,0,0,38.007,36.786Z" transform="translate(184.193 136.704)" fill="url(#linear-gradient-2)"/>
  <path id="路径_223" data-name="路径 223" d="M10.011,33.655l48.577-.049a6.942,6.942,0,0,0,6.933-6.947L65.5,5.841,9.983,5.9Z" transform="translate(17.741 -5.716)" fill="url(#linear-gradient-3)"/>
  <path id="路径_224" data-name="路径 224" d="M33.788,82.185,33.712,5.849,10.041,29.569a13.845,13.845,0,0,0-4.053,9.82l.049,49.771,20.819-.021A6.948,6.948,0,0,0,33.788,82.185Z" transform="translate(-5.988 -5.668)" fill="url(#linear-gradient-4)"/>
  <path id="路径_226" data-name="路径 226" d="M33.771,36.783l.076,76.336L10.128,89.454a13.878,13.878,0,0,1-4.074-9.813L6.006,29.871l20.819-.021A6.942,6.942,0,0,1,33.771,36.783Z" transform="translate(-5.881 136.888)" fill="url(#linear-gradient-5)"/>
  <path id="路径_227" data-name="路径 227" d="M85.528,33.581,36.95,33.63A6.942,6.942,0,0,1,30,26.7L29.983,5.879,85.5,5.823Z" transform="translate(136.533 -5.823)" fill="url(#linear-gradient-6)"/>
  <path id="路径_228" data-name="路径 228" d="M38.059,82.159,37.983,5.823,61.7,29.494a13.878,13.878,0,0,1,4.074,9.813l.049,49.771L45,89.1A6.947,6.947,0,0,1,38.059,82.159Z" transform="translate(184.05 -5.823)" fill="url(#linear-gradient-7)"/>
  <circle id="椭圆_24" data-name="椭圆 24" cx="34.698" cy="34.698" r="34.698" transform="translate(70.298 49.806)" fill="url(#radial-gradient)"/>
  <circle id="椭圆_25" data-name="椭圆 25" cx="27.758" cy="27.758" r="27.758" transform="translate(77.238 56.745)" fill="url(#linear-gradient-8)"/>
  <path id="路径_229" data-name="路径 229" d="M71.517,23A55.582,55.582,0,0,0,16,78.517v7.807A13.025,13.025,0,0,0,29.012,99.336h85.01a13.025,13.025,0,0,0,13.012-13.012V78.517A55.582,55.582,0,0,0,71.517,23Z" transform="translate(33.48 96.202)" opacity="0.05"/>
  <path id="路径_230" data-name="路径 230" d="M68.547,23.5A52.1,52.1,0,0,0,16.5,75.547v7.807A9.554,9.554,0,0,0,26.042,92.9h85.01a9.554,9.554,0,0,0,9.542-9.542V75.547A52.1,52.1,0,0,0,68.547,23.5Z" transform="translate(36.449 99.172)" opacity="0.07"/>
  <path id="路径_231" data-name="路径 231" d="M114.155,72.577a48.577,48.577,0,0,0-97.155,0v7.807a6.074,6.074,0,0,0,6.072,6.072h85.01a6.074,6.074,0,0,0,6.072-6.072Z" transform="translate(39.419 102.142)" fill="url(#linear-gradient-9)"/>
  <g id="组_48" data-name="组 48" transform="translate(219.507 104.656) rotate(90)">
    <path id="路径_29" data-name="路径 29" d="M.91,24.209,30.973,54.272a3.1,3.1,0,0,0,4.419,0l6.354-6.354a3.1,3.1,0,0,0,0-4.419L11.7,13.417a3.125,3.125,0,0,0-4.438,0L.91,19.771A3.16,3.16,0,0,0,.91,24.209Z" transform="translate(0 11.202)" fill="url(#linear-gradient-10)"/>
    <path id="路径_30" data-name="路径 30" d="M79.661,23.708H29.74L41.746,11.7a3.125,3.125,0,0,0,0-4.438L35.392.91a3.137,3.137,0,0,0-4.419,0L.91,30.973a3.137,3.137,0,0,0,0,4.419l6.354,6.354a3.086,3.086,0,0,0,2.219.929H79.661a3.8,3.8,0,0,0,3.793-3.793V27.5A3.8,3.8,0,0,0,79.661,23.708Z" transform="translate(0 0)" fill="url(#linear-gradient-11)"/>
  </g>
</svg>
