<svg id="Settings" xmlns="http://www.w3.org/2000/svg" xmlns:xlink="http://www.w3.org/1999/xlink" width="615.557" height="200.127" viewBox="0 0 615.557 200.127">
  <defs>
    <linearGradient id="linear-gradient" x1="0.848" y1="0.239" x2="0.147" y2="0.94" gradientUnits="objectBoundingBox">
      <stop offset="0" stop-color="#fff"/>
      <stop offset="0.242" stop-color="#f2f2f2"/>
      <stop offset="1" stop-color="#ccc"/>
    </linearGradient>
    <linearGradient id="linear-gradient-2" x1="0.032" y1="1.111" x2="0.853" y2="0.29" gradientUnits="objectBoundingBox">
      <stop offset="0" stop-color="#0d61a9"/>
      <stop offset="0.363" stop-color="#0e5fa4"/>
      <stop offset="0.78" stop-color="#135796"/>
      <stop offset="1" stop-color="#16528c"/>
    </linearGradient>
    <linearGradient id="linear-gradient-3" x1="0.033" y1="1.044" x2="0.852" y2="0.185" gradientUnits="objectBoundingBox">
      <stop offset="0" stop-color="#889097"/>
      <stop offset="0.331" stop-color="#848c94"/>
      <stop offset="0.669" stop-color="#78828b"/>
      <stop offset="1" stop-color="#64717c"/>
    </linearGradient>
  </defs>
  <g id="组_8" data-name="组 8">
    <circle id="椭圆_2" data-name="椭圆 2" cx="60.39" cy="60.39" r="60.39" transform="translate(44.636 40.067)" fill="url(#linear-gradient)"/>
    <circle id="椭圆_3" data-name="椭圆 3" cx="36.759" cy="36.759" r="36.759" transform="translate(68.267 63.698)" fill="url(#linear-gradient-2)"/>
    <path id="路径_21" data-name="路径 21" d="M206.954,75.461A36.664,36.664,0,0,1,174.711,22a104.963,104.963,0,0,0-39.07-22,36.723,36.723,0,0,1-30.615,16.437A36.653,36.653,0,0,1,74.411,0,104.341,104.341,0,0,0,35.394,22,36.664,36.664,0,0,1,3.151,75.461a103.48,103.48,0,0,0-3.151,25A106.081,106.081,0,0,0,1.89,120.15a36.751,36.751,0,0,1,31.455,56.977,104.511,104.511,0,0,0,38.545,23,36.674,36.674,0,0,1,66.166,0,104.511,104.511,0,0,0,38.544-23A36.724,36.724,0,0,1,208.056,120.2a106.081,106.081,0,0,0,1.89-19.692A101,101,0,0,0,206.954,75.461ZM105.026,155.6a55.139,55.139,0,1,1,55.139-55.139A55.132,55.132,0,0,1,105.026,155.6Z" fill="url(#linear-gradient-3)"/>
  </g>
  <text id="功能设置" transform="translate(269.671 107.516)" fill="#707070" font-size="86" font-family="MicrosoftYaHei-Bold, Microsoft YaHei" font-weight="700"><tspan x="0" y="0">功能设置</tspan></text>
  <text id="软件功能设置" transform="translate(269.671 186.516)" fill="#707070" font-size="43" font-family="MicrosoftYaHei, Microsoft YaHei"><tspan x="0" y="0">软件功能设置</tspan></text>
</svg>
