<svg id="组_24" data-name="组 24" xmlns="http://www.w3.org/2000/svg" xmlns:xlink="http://www.w3.org/1999/xlink" width="250" height="250" viewBox="0 0 250 250">
  <defs>
    <linearGradient id="linear-gradient" x1="0.146" y1="0.904" x2="0.854" y2="0.196" gradientUnits="objectBoundingBox">
      <stop offset="0" stop-color="#f44f5a"/>
      <stop offset="0.443" stop-color="#ee3d4a"/>
      <stop offset="1" stop-color="#e52030"/>
    </linearGradient>
  </defs>
  <path id="路径_112" data-name="路径 112" d="M250,125A125,125,0,1,1,125,0,125.046,125.046,0,0,1,250,125Z" fill="url(#linear-gradient)"/>
  <path id="路径_113" data-name="路径 113" d="M119.484,14.913v29.5a12.13,12.13,0,0,0,2.563,7.688,43.75,43.75,0,1,1-67.625,0,11.787,11.787,0,0,0,2.563-7.562V14.913a6.2,6.2,0,0,0-9.187-5.5A81.231,81.231,0,0,0,7.859,91.788C12.984,127.851,42.734,156.6,78.984,160.6A81.246,81.246,0,0,0,128.671,9.413,6.2,6.2,0,0,0,119.484,14.913Z" transform="translate(36.766 45.149)" opacity="0.05"/>
  <path id="路径_114" data-name="路径 114" d="M119.882,14.049V40.8a9.235,9.235,0,0,0,2,5.813,46.875,46.875,0,1,1-72.75,0,9.063,9.063,0,0,0,2-5.75V14.049a4.649,4.649,0,0,0-7.062-4A77.488,77.488,0,0,0,7.819,82.987c3.25,37.5,33.938,68.187,71.562,70.938A78.041,78.041,0,0,0,127.007,9.987,4.711,4.711,0,0,0,119.882,14.049Z" transform="translate(39.493 48.888)" opacity="0.07"/>
  <path id="路径_115" data-name="路径 115" d="M120.518,13.266V37.141a5.83,5.83,0,0,0,1.438,3.875,50,50,0,1,1-77.875,0,6.478,6.478,0,0,0,1.438-3.937V13.266a3.261,3.261,0,0,0-5.125-2.625A74.863,74.863,0,0,0,8.018,74.078c.937,39,33,71.625,72,73.125A74.944,74.944,0,0,0,125.643,10.641,3.243,3.243,0,0,0,120.518,13.266Z" transform="translate(41.982 52.734)" fill="#fff"/>
  <path id="路径_116" data-name="路径 116" d="M29.5,81H42A12.537,12.537,0,0,0,54.5,68.5v-50A12.537,12.537,0,0,0,42,6H29.5A12.537,12.537,0,0,0,17,18.5v50A12.537,12.537,0,0,0,29.5,81Z" transform="translate(89.25 31.5)" opacity="0.05"/>
  <path id="路径_117" data-name="路径 117" d="M26.875,75.25h12.5a9.362,9.362,0,0,0,9.375-9.375v-50A9.362,9.362,0,0,0,39.375,6.5h-12.5A9.362,9.362,0,0,0,17.5,15.875v50A9.362,9.362,0,0,0,26.875,75.25Z" transform="translate(91.875 34.125)" opacity="0.07"/>
  <path id="路径_118" data-name="路径 118" d="M36.75,69.5H24.25A6.268,6.268,0,0,1,18,63.25v-50A6.268,6.268,0,0,1,24.25,7h12.5A6.268,6.268,0,0,1,43,13.25v50A6.268,6.268,0,0,1,36.75,69.5Z" transform="translate(94.5 36.75)" fill="#fff"/>
</svg>
