<svg id="组_4" data-name="组 4" xmlns="http://www.w3.org/2000/svg" width="198.906" height="250" viewBox="0 0 198.906 250">
  <path id="路径_9" data-name="路径 9" d="M47.592,2.727l90.057,90.057a9.294,9.294,0,0,1,0,13.239l-19.034,19.034a9.294,9.294,0,0,1-13.239,0l-90.114-90a9.362,9.362,0,0,1,0-13.3L34.3,2.727A9.466,9.466,0,0,1,47.592,2.727Z" transform="translate(58.488 0)" fill="#1a9ba1"/>
  <path id="路径_10" data-name="路径 10" d="M125.114,35.057,35.057,125.114a9.362,9.362,0,0,1-13.3,0L2.727,106.08a9.4,9.4,0,0,1,0-13.239L92.784,2.727a9.4,9.4,0,0,1,13.239,0l19.034,19.034A9.414,9.414,0,0,1,125.114,35.057Z" transform="translate(0)" fill="#37c6d0"/>
  <path id="路径_11" data-name="路径 11" d="M69.318,215.227V5L12.5,22.045V215.227a11.4,11.4,0,0,0,11.364,11.364H57.955A11.36,11.36,0,0,0,69.318,215.227Z" transform="translate(58.523 23.409)" fill="#37c6d0"/>
</svg>
