<svg xmlns="http://www.w3.org/2000/svg" xmlns:xlink="http://www.w3.org/1999/xlink" width="250" height="250" viewBox="0 0 250 250">
  <defs>
    <linearGradient id="linear-gradient" x1="0.151" y1="0.895" x2="0.858" y2="0.186" gradientUnits="objectBoundingBox">
      <stop offset="0" stop-color="#21ad64"/>
      <stop offset="1" stop-color="#088242"/>
    </linearGradient>
  </defs>
  <g id="组_1" data-name="组 1" transform="translate(0.008 -0.001)">
    <path id="路径_1" data-name="路径 1" d="M139.415,6.636l4.5,5.2,5.935-3.447a19.1,19.1,0,0,1,27.362,9.4l2.561,6.392,6.747-1.316a19.134,19.134,0,0,1,22.8,17.8l.375,6.893,6.809.94A19.156,19.156,0,0,1,232.31,72.75l-1.874,6.643,6.122,3.071A19.259,19.259,0,0,1,243.68,110.6l-3.936,5.64,4.81,4.888a19.249,19.249,0,0,1-2.374,28.89l-5.56,4.073,2.936,6.2a19.225,19.225,0,0,1-11.62,26.571l-6.56,2.068.75,6.831a19.125,19.125,0,0,1-19.553,21.307l-6.872-.188-1.5,6.705a19.106,19.106,0,0,1-25.426,13.787l-6.435-2.444-3.561,5.891a19.059,19.059,0,0,1-28.487,4.763l-5.31-4.449-5.248,4.387a19.052,19.052,0,0,1-28.487-4.763l-3.561-5.891-6.435,2.444a19.106,19.106,0,0,1-25.426-13.787l-1.5-6.705-6.872.188A19.125,19.125,0,0,1,27.9,195.7l.75-6.831L22.094,186.8a19.207,19.207,0,0,1-11.62-26.571l2.936-6.2-5.56-4.073a19.16,19.16,0,0,1-2.374-28.89l4.81-4.888-3.936-5.64A19.216,19.216,0,0,1,13.473,82.4l6.122-3.071-1.874-6.58A19.189,19.189,0,0,1,33.526,48.435l6.809-.94L40.71,40.6a19.134,19.134,0,0,1,22.8-17.8l6.747,1.316,2.561-6.392a19.088,19.088,0,0,1,27.362-9.4l5.935,3.447,4.5-5.2A19,19,0,0,1,139.415,6.636Z" transform="translate(0 0)" fill="url(#linear-gradient)"/>
    <path id="路径_2" data-name="路径 2" d="M133.978,15.191l-63.533,63.8-32.3-32.4a12.49,12.49,0,0,0-17.679,0L11.66,55.423a12.585,12.585,0,0,0,0,17.735l49.977,50.134a12.49,12.49,0,0,0,17.679,0l81.213-81.467a12.585,12.585,0,0,0,0-17.735l-8.871-8.9A12.49,12.49,0,0,0,133.978,15.191Z" transform="translate(42.045 60.692)" opacity="0.05"/>
    <path id="路径_3" data-name="路径 3" d="M61.239,118.39,11.262,68.256a9.363,9.363,0,0,1,0-13.285l8.808-8.836a9.293,9.293,0,0,1,13.244,0L67.861,80.726,133.643,14.8a9.293,9.293,0,0,1,13.244,0l8.808,8.836a9.363,9.363,0,0,1,0,13.285L74.483,118.39A9.293,9.293,0,0,1,61.239,118.39Z" transform="translate(44.629 63.339)" opacity="0.07"/>
    <path id="路径_4" data-name="路径 4" d="M60.8,113.563,10.825,63.429a6.255,6.255,0,0,1,0-8.836l8.808-8.836a6.208,6.208,0,0,1,8.808,0l36.8,36.786,67.969-68.182a6.208,6.208,0,0,1,8.808,0l8.808,8.836a6.255,6.255,0,0,1,0,8.836L69.61,113.5A6.152,6.152,0,0,1,60.8,113.563Z" transform="translate(47.253 65.972)" fill="#fcff63"/>
  </g>
</svg>
