<svg id="VolumeOff" xmlns="http://www.w3.org/2000/svg" xmlns:xlink="http://www.w3.org/1999/xlink" width="175" height="250" viewBox="0 0 175 250">
  <defs>
    <linearGradient id="linear-gradient" x1="-4.298" y1="0.872" x2="3.964" y2="0.322" gradientUnits="objectBoundingBox">
      <stop offset="0" stop-color="#a1aab3"/>
      <stop offset="1" stop-color="#8f979e"/>
    </linearGradient>
    <linearGradient id="linear-gradient-2" x1="0.145" y1="0.905" x2="0.859" y2="0.191" gradientUnits="objectBoundingBox">
      <stop offset="0" stop-color="#f44f5a"/>
      <stop offset="0.443" stop-color="#ee3d4a"/>
      <stop offset="1" stop-color="#e52030"/>
    </linearGradient>
    <linearGradient id="linear-gradient-3" x1="-0.078" y1="1.162" x2="1.074" y2="0.01" xlink:href="#linear-gradient-2"/>
  </defs>
  <g id="组_28" data-name="组 28">
    <path id="路径_23" data-name="路径 23" d="M21.28,31.67Z" transform="translate(118.72 30.238)" fill="#35c1f1"/>
    <path id="路径_26" data-name="路径 26" d="M39.474,116.263H13.158A13.154,13.154,0,0,1,0,103.105V24.158A13.154,13.154,0,0,1,13.158,11H39.474Z" transform="translate(0 61.368)" fill="#5c6369"/>
    <path id="路径_27" data-name="路径 27" d="M65.211,237.842,6,172.053V66.789L65.211,1Z" transform="translate(33.474 5.579)" fill="#727d86"/>
    <path id="路径_28" data-name="路径 28" d="M21.579,0h0A6.6,6.6,0,0,0,15,6.579V243.421A6.6,6.6,0,0,0,21.579,250h0a6.6,6.6,0,0,0,6.579-6.579V6.579A6.6,6.6,0,0,0,21.579,0Z" transform="translate(83.684)" fill="url(#linear-gradient)"/>
  </g>
  <g id="组_29" data-name="组 29" transform="translate(105 90)">
    <path id="路径_138" data-name="路径 138" d="M35,0A35,35,0,1,0,70,35,34.99,34.99,0,0,0,35,0Zm0,59.5A24.5,24.5,0,1,1,59.5,35,24.5,24.5,0,0,1,35,59.5Z" fill="url(#linear-gradient-2)"/>
    <path id="路径_139" data-name="路径 139" d="M12.55,57.175l-7.42-7.42L49.755,5.13l7.42,7.42Z" transform="translate(3.848 3.848)" fill="url(#linear-gradient-3)"/>
  </g>
</svg>
