<svg id="组_9" data-name="组 9" xmlns="http://www.w3.org/2000/svg" xmlns:xlink="http://www.w3.org/1999/xlink" width="243.421" height="250" viewBox="0 0 243.421 250">
  <defs>
    <linearGradient id="linear-gradient" x1="-4.298" y1="0.872" x2="3.964" y2="0.322" gradientUnits="objectBoundingBox">
      <stop offset="0" stop-color="#a1aab3"/>
      <stop offset="1" stop-color="#8f979e"/>
    </linearGradient>
  </defs>
  <path id="路径_22" data-name="路径 22" d="M68.033,113.851A114.588,114.588,0,0,1,25.27,203.193l20.855,20.855a5.583,5.583,0,0,0,7.829.2,149.824,149.824,0,0,0,48.487-110.395A149.824,149.824,0,0,0,53.954,3.456a5.708,5.708,0,0,0-7.829.2L25.27,24.443A114.821,114.821,0,0,1,68.033,113.851Z" transform="translate(140.98 11.149)" fill="#50e6ff"/>
  <path id="路径_23" data-name="路径 23" d="M53.583,94.762a77.739,77.739,0,0,1-32.3,63.092L47.53,184.1A114.588,114.588,0,0,0,90.293,94.762,114.588,114.588,0,0,0,47.53,5.42L21.28,31.67A77.739,77.739,0,0,1,53.583,94.762Z" transform="translate(118.72 30.238)" fill="#35c1f1"/>
  <path id="路径_24" data-name="路径 24" d="M76.122,72.5A77.739,77.739,0,0,0,43.819,9.41L17.24,35.989A41.217,41.217,0,0,1,39.345,72.568,41.217,41.217,0,0,1,17.24,109.147l26.579,26.579A78.172,78.172,0,0,0,76.122,72.5Z" transform="translate(96.181 52.498)" fill="#1b9de2"/>
  <path id="路径_25" data-name="路径 25" d="M11.69,50.019,48.269,86.6a41.317,41.317,0,0,0,0-73.158Z" transform="translate(65.218 74.981)" fill="#0078d4"/>
  <path id="路径_26" data-name="路径 26" d="M39.474,116.263H13.158A13.154,13.154,0,0,1,0,103.105V24.158A13.154,13.154,0,0,1,13.158,11H39.474Z" transform="translate(0 61.368)" fill="#5c6369"/>
  <path id="路径_27" data-name="路径 27" d="M65.211,237.842,6,172.053V66.789L65.211,1Z" transform="translate(33.474 5.579)" fill="#727d86"/>
  <path id="路径_28" data-name="路径 28" d="M21.579,0h0A6.6,6.6,0,0,0,15,6.579V243.421A6.6,6.6,0,0,0,21.579,250h0a6.6,6.6,0,0,0,6.579-6.579V6.579A6.6,6.6,0,0,0,21.579,0Z" transform="translate(83.684)" fill="url(#linear-gradient)"/>
</svg>
