<svg xmlns="http://www.w3.org/2000/svg" xmlns:xlink="http://www.w3.org/1999/xlink" width="250" height="262.5" viewBox="0 0 250 262.5">
  <defs>
    <linearGradient id="linear-gradient" x1="-0.382" y1="0.164" x2="1.187" y2="0.836" gradientUnits="objectBoundingBox">
      <stop offset="0" stop-color="#889097"/>
      <stop offset="1" stop-color="#64717c"/>
    </linearGradient>
    <linearGradient id="linear-gradient-2" y1="0.5" x2="1" y2="0.5" gradientUnits="objectBoundingBox">
      <stop offset="0" stop-color="#42a3f2"/>
      <stop offset="1" stop-color="#42a4eb"/>
    </linearGradient>
    <linearGradient id="linear-gradient-3" x1="0.146" y1="0.146" x2="0.854" y2="0.854" xlink:href="#linear-gradient"/>
    <radialGradient id="radial-gradient" cx="0.5" cy="0.5" r="0.5" gradientUnits="objectBoundingBox">
      <stop offset="0"/>
      <stop offset="1" stop-opacity="0"/>
    </radialGradient>
    <radialGradient id="radial-gradient-2" cx="0.497" cy="0.012" r="1.114" gradientUnits="objectBoundingBox">
      <stop offset="0" stop-color="#fafafb"/>
      <stop offset="1" stop-color="#c8cdd1"/>
    </radialGradient>
  </defs>
  <g id="icons8_watches_front_view" transform="translate(-5 -3)">
    <path id="路径_191" data-name="路径 191" d="M54.5,63.75H42V20H54.5a6.252,6.252,0,0,1,6.25,6.25V57.5A6.252,6.252,0,0,1,54.5,63.75Z" transform="translate(194.25 89.25)" fill="url(#linear-gradient)"/>
    <path id="路径_192" data-name="路径 192" d="M23.5,3H161a12.5,12.5,0,0,1,12.5,12.5V253A12.5,12.5,0,0,1,161,265.5H23.5A12.5,12.5,0,0,1,11,253V15.5A12.5,12.5,0,0,1,23.5,3Z" transform="translate(31.5)" fill="url(#linear-gradient-2)"/>
    <circle id="椭圆_18" data-name="椭圆 18" cx="118.75" cy="118.75" r="118.75" transform="translate(5 15.5)" fill="url(#linear-gradient-3)"/>
    <circle id="椭圆_19" data-name="椭圆 19" cx="109.375" cy="109.375" r="109.375" transform="translate(14.375 24.875)" fill="url(#radial-gradient)"/>
    <circle id="椭圆_20" data-name="椭圆 20" cx="100" cy="100" r="100" transform="translate(23.75 34.25)" fill="url(#radial-gradient-2)"/>
    <path id="路径_193" data-name="路径 193" d="M27.938,107.625a4.689,4.689,0,0,1-4.687-4.687v-75a4.688,4.688,0,0,1,9.375,0v75A4.689,4.689,0,0,1,27.938,107.625Z" transform="translate(95.813 106.313)" fill="#d83b01"/>
    <path id="路径_194" data-name="路径 194" d="M27.936,77.175a4.691,4.691,0,0,1-3.312-8.006L77.655,16.138a4.689,4.689,0,0,1,6.631,6.631L31.249,75.8A4.651,4.651,0,0,1,27.936,77.175Z" transform="translate(95.814 61.762)" fill="#45494d"/>
    <path id="路径_195" data-name="路径 195" d="M71.441,57.991a7.773,7.773,0,0,1-3.375-.769L19.4,33.878a7.812,7.812,0,0,1,6.756-14.087L74.822,43.134a7.813,7.813,0,0,1-3.381,14.856Z" transform="translate(52.303 84.072)" fill="#45494d"/>
    <circle id="椭圆_21" data-name="椭圆 21" cx="12.5" cy="12.5" r="12.5" transform="translate(111.25 121.75)" fill="#1e2021"/>
  </g>
</svg>
