<svg id="组_49" data-name="组 49" xmlns="http://www.w3.org/2000/svg" xmlns:xlink="http://www.w3.org/1999/xlink" width="1015.759" height="250" viewBox="0 0 1015.759 250">
  <defs>
    <linearGradient id="linear-gradient" x1="0.5" x2="0.5" y2="1" gradientUnits="objectBoundingBox">
      <stop offset="0" stop-color="#d4dce4"/>
      <stop offset="0.045" stop-color="#c2cdd9"/>
      <stop offset="1" stop-color="#8ca1b6"/>
    </linearGradient>
  </defs>
  <path id="减去_5" data-name="减去 5" d="M226.527,250H13.852a18.6,18.6,0,0,1-7.871-1.534,10.236,10.236,0,0,1-4.72-4.179,10.214,10.214,0,0,1-1.2-6.162A18.493,18.493,0,0,1,2.72,230.6L126.829,19.4C133.134,8.7,148.372,0,160.8,0H373.471c-12.335.153-27.426,8.856-33.642,19.4L215.72,230.6a18.479,18.479,0,0,0-2.661,7.527,9.8,9.8,0,0,0,5.923,10.341A18.357,18.357,0,0,0,226.527,250Z" fill="#fee38a"/>
  <path id="减去_8" data-name="减去 8" d="M226.527,250H13.852a18.6,18.6,0,0,1-7.871-1.534,10.236,10.236,0,0,1-4.72-4.179,10.214,10.214,0,0,1-1.2-6.162A18.493,18.493,0,0,1,2.72,230.6L126.829,19.4C133.134,8.7,148.372,0,160.8,0H373.471c-12.335.153-27.426,8.856-33.642,19.4L215.72,230.6a18.479,18.479,0,0,0-2.661,7.527,9.8,9.8,0,0,0,5.923,10.341A18.357,18.357,0,0,0,226.527,250Z" transform="translate(170.419)" fill="#fddd72"/>
  <path id="减去_11" data-name="减去 11" d="M226.527,250H13.852a18.6,18.6,0,0,1-7.871-1.534,10.236,10.236,0,0,1-4.72-4.179,10.214,10.214,0,0,1-1.2-6.162A18.493,18.493,0,0,1,2.72,230.6L126.829,19.4C133.134,8.7,148.372,0,160.8,0H373.471c-12.335.153-27.426,8.856-33.642,19.4L215.72,230.6a18.479,18.479,0,0,0-2.661,7.527,9.8,9.8,0,0,0,5.923,10.341A18.357,18.357,0,0,0,226.527,250Z" transform="translate(331.996)" fill="#f9d14e"/>
  <path id="减去_14" data-name="减去 14" d="M226.527,250H13.852a18.6,18.6,0,0,1-7.871-1.534,10.236,10.236,0,0,1-4.72-4.179,10.214,10.214,0,0,1-1.2-6.162A18.493,18.493,0,0,1,2.72,230.6L126.829,19.4C133.134,8.7,148.372,0,160.8,0H373.471c-12.335.153-27.426,8.856-33.642,19.4L215.72,230.6a18.479,18.479,0,0,0-2.661,7.527,9.8,9.8,0,0,0,5.923,10.341A18.357,18.357,0,0,0,226.527,250Z" transform="translate(478.031)" fill="#f8ca31" fill-rule="evenodd"/>
  <path id="减去_17" data-name="减去 17" d="M226.527,250H13.852a18.6,18.6,0,0,1-7.871-1.534,10.236,10.236,0,0,1-4.72-4.179,10.214,10.214,0,0,1-1.2-6.162A18.493,18.493,0,0,1,2.72,230.6L126.829,19.4C133.134,8.7,148.372,0,160.8,0H373.471c-12.335.153-27.426,8.856-33.642,19.4L215.72,230.6a18.479,18.479,0,0,0-2.661,7.527,9.8,9.8,0,0,0,5.923,10.341A18.357,18.357,0,0,0,226.527,250Z" transform="translate(1015.759 250) rotate(180)" fill="#f8c10a"/>
  <g id="product-overview_smartphone_1_" transform="translate(29.001 -8)">
    <g id="nav_1_" transform="translate(-1 10)">
      <path id="Fill-22_1_" d="M117.02,93.739h22.71V12.95H117.02Z" transform="translate(627.429 69.429)" fill-rule="evenodd" fill="url(#linear-gradient)"/>
      <path id="Fill-23_1_" d="M144.87,53.408h-.064l.064-.191L168.152,12.95h-22.71L122.16,53.217l.127.191h-.127l23.282,40.331h22.71L144.87,53.408" transform="translate(654.986 69.429)" fill-rule="evenodd" fill="url(#linear-gradient)"/>
      <path id="Fill-24_1_" d="M141.016,12.95H122.822L76.13,93.739H99.158l33.206-57.57v57.57h22.964V12.95H141.016" transform="translate(408.204 69.429)" fill-rule="evenodd" fill="url(#linear-gradient)"/>
      <path id="Fill-25_1_" d="M47.22,31.5H82.971L90.731,18.27H54.408L47.22,31.5" transform="translate(253.209 97.951)" fill-rule="evenodd" fill="url(#linear-gradient)"/>
      <path id="Fill-26_1_" d="M65,43.709h0C65,33.531,68.049,29.65,77.973,29.65h32.316l9.669-16.73H74.6c-19.338,0-32.061,6.807-32.061,31.234V93.963h69.847l9.669-16.73h-57V43.709" transform="translate(228.118 69.268)" fill-rule="evenodd" fill="url(#linear-gradient)"/>
      <path id="Fill-27_1_" d="M107.77,31.5h35.751l7.7-13.232h-36.26L107.77,31.5" transform="translate(577.837 97.951)" fill-rule="evenodd" fill="url(#linear-gradient)"/>
      <path id="Fill-28_1_" d="M125.612,43.709h0c0-10.178,3.053-14.059,13.041-14.059h32.315l9.669-16.73H135.281c-19.338,0-32.061,6.807-32.061,31.234V93.963h69.847l9.669-16.73h-57V43.709" transform="translate(553.443 69.268)" fill-rule="evenodd" fill="url(#linear-gradient)"/>
      <path id="Fill-29_1_" d="M90.15,29.744h28.308V93.739h22.2V29.744h20.929l9.669-16.794H99.883L90.15,29.744" transform="translate(483.37 69.429)" fill-rule="evenodd" fill="url(#linear-gradient)"/>
      <path id="Fill-30_1_" d="M91.127,77.3H78.786V29.65H91.127c17.939,0,23.6,3.181,23.6,23.219S109.066,77.3,91.127,77.3ZM95.961,12.92H57.03V94.027H97.043c28.117,0,40.712-10.814,40.712-41.158-.064-28.69-12.532-39.949-41.794-39.949Z" transform="translate(305.803 69.268)" fill-rule="evenodd" fill="url(#linear-gradient)"/>
      <path id="Fill-31_1_" d="M71.71,93.739H94.42V12.95H71.71Z" transform="translate(384.507 69.429)" fill-rule="evenodd" fill="url(#linear-gradient)"/>
      <path id="Fill-32_1_" d="M94.621,53.981V12.95l-26.972.064L21.02,93.612H43.285L71.911,44.12V93.294l-.191.318h.191v.127h22.71L122.61,44.12V93.739h22.71V12.95l-27.036.064L94.621,53.981" transform="translate(112.742 69.429)" fill-rule="evenodd" fill="url(#linear-gradient)"/>
    </g>
  </g>
  <text id="Toolbox" transform="translate(638.001 231)" fill="#a7b2be" font-size="65" font-family="GoogleSans-Bold, Google Sans" font-weight="700"><tspan x="0" y="0">Toolbox</tspan></text>
</svg>
